<svg width="132" height="136" viewBox="0 0 132 136" fill="none" xmlns="http://www.w3.org/2000/svg">
<g filter="url(#filter0_d)">
<path d="M78.0008 13.7635L77.789 13.5648L77.5115 13.6503L66.4209 17.0657L55.4604 13.2533L55.1861 13.1579L54.9673 13.3489L46.2247 20.98L34.6612 21.9553L34.3718 21.9797L34.2497 22.2431L29.3667 32.7704L19.1996 38.3647L18.9452 38.5047L18.9407 38.7951L18.7618 50.3983L11.7491 59.6443L11.5736 59.8756L11.6876 60.1427L16.2436 70.8156L13.5978 82.1145L13.5316 82.3973L13.7444 82.5949L22.2475 90.4919L24.4262 101.89L24.4807 102.175L24.7555 102.269L35.7355 106.025L42.3619 115.552L42.5277 115.79L42.8169 115.764L54.3753 114.729L64.3037 120.737L64.5521 120.888L64.8058 120.746L74.944 115.1L86.4576 116.55L86.7457 116.586L86.92 116.354L93.8849 107.072L104.993 103.714L105.271 103.63L105.336 103.347L107.923 92.0341L116.705 84.4482L116.925 84.2583L116.869 83.9734L114.631 72.5865L119.568 62.0846L119.692 61.8218L119.525 61.5842L112.85 52.0919L113.088 40.4897L113.094 40.1994L112.845 40.0503L102.886 34.0938L98.385 23.3976L98.2723 23.1299L97.984 23.0951L86.4631 21.7043L78.0008 13.7635Z" fill="#BAF2C3" stroke="black"/>
<path d="M77.2491 15.0804L85.6387 22.953L97.0607 24.3319L101.523 34.9363L111.397 40.8417L111.16 52.3442L117.778 61.7551L112.883 72.1669L115.102 83.456L106.395 90.9768L103.83 102.192L92.8172 105.521L85.912 114.724L74.4973 113.286L64.4462 118.884L54.603 112.928L43.1439 113.954L36.5744 104.509L25.6886 100.786L23.5287 89.4852L15.0985 81.6559L17.7216 70.454L13.2047 59.8728L20.1572 50.7062L20.3346 39.2026L30.4145 33.6563L35.2555 23.2194L46.7197 22.2525L55.3873 14.6869L66.2537 18.4665L77.2491 15.0804Z" fill="#232326"/>
<path d="M32.0024 65.1678L33.493 65.5128L34.7886 59.9148L41.1154 61.3791L39.8198 66.9771L41.3104 67.3221L44.0511 55.4801L42.5605 55.1351L41.3952 60.17L35.0685 58.7057L36.2337 53.6708L34.7431 53.3258L32.0024 65.1678ZM47.2736 68.9465C49.8407 69.5406 51.8652 67.8804 52.4402 65.396C53.0152 62.9117 51.926 60.5308 49.3588 59.9367C46.8083 59.3463 44.7506 60.999 44.1757 63.4833C43.6007 65.9676 44.723 68.3562 47.2736 68.9465ZM47.5342 67.8203C45.7124 67.3986 45.1133 65.6895 45.5503 63.8014C45.9873 61.9133 47.2802 60.6247 49.102 61.0463C50.9238 61.468 51.5025 63.1898 51.0655 65.0779C50.6285 66.966 49.3561 68.2419 47.5342 67.8203ZM55.0786 70.5086L56.5692 70.8536L61.6315 63.0039L60.2403 62.6819L57.1777 67.6965C56.7568 68.3843 56.1968 69.3715 56.1968 69.3715L56.1637 69.3638C56.1637 69.3638 56.0905 68.2476 56.0184 67.4282L55.5035 61.5856L54.0626 61.2522L55.0786 70.5086ZM64.3689 72.9031C66.3067 73.3516 67.8897 72.6186 68.7127 70.8722L67.4042 70.5694C66.8378 71.6598 65.8717 72.0643 64.6295 71.7768C62.9071 71.3782 62.2697 69.8347 62.5728 68.0727L69.1977 69.606C69.8531 66.7738 68.9385 64.4682 66.3713 63.8741C63.9367 63.3106 61.8459 64.9555 61.271 67.4399C60.696 69.9242 61.752 72.2974 64.3689 72.9031ZM66.126 64.934C67.6663 65.2905 68.3026 66.5371 67.9906 68.2622L62.8397 67.0701C63.3988 65.5592 64.536 64.5661 66.126 64.934ZM73.2479 65.6924L71.9063 65.3819L69.9246 73.9446L71.2661 74.2551L72.3662 69.5017C72.738 67.8952 74.1274 67.1698 75.4524 67.4764C75.7174 67.5378 75.846 67.585 76.0294 67.6973L76.0791 67.7088L76.3781 66.4169C76.2278 66.3123 76.103 66.2485 75.8546 66.191C74.7118 65.9265 73.6564 66.4152 72.9513 67.1244L72.9182 67.1168L73.2479 65.6924ZM83.3964 77.2545C85.9304 77.841 88.1989 77.162 88.8621 74.2967L90.7173 66.2806L89.2267 65.9356L87.406 73.8027C86.9383 75.8233 85.6127 76.4238 83.7412 75.9907C81.7869 75.5384 80.8434 74.4127 81.3111 72.3921L83.1318 64.525L81.6412 64.18L79.786 72.1961C79.1228 75.0614 80.8127 76.6565 83.3964 77.2545ZM93.3217 79.6214C95.2926 80.0776 96.9036 79.5256 97.3022 77.8031C97.7584 75.8322 96.4056 75.1178 94.7637 74.3714C93.3586 73.7321 92.5727 73.3582 92.7873 72.4308C92.9445 71.7517 93.5679 71.3201 94.7935 71.6038C96.0688 71.899 96.5666 72.5377 96.4384 73.6945L97.8131 74.0127C98.0015 72.2939 97.1919 71.0421 95.0719 70.5515C93.0844 70.0915 91.7767 70.766 91.447 72.1903C91.0139 74.0619 92.4405 74.7585 94.0494 75.4973C95.5461 76.1927 96.1511 76.5945 95.9288 77.5551C95.7448 78.35 95.0233 78.8287 93.6155 78.5029C92.3402 78.2077 91.4423 77.5637 91.6051 76.0309L90.2305 75.7127C89.9183 77.6646 90.9699 79.0771 93.3217 79.6214Z" fill="#BAF2C3"/>
</g>
<defs>
<filter id="filter0_d" x="0.176544" y="0.68042" width="130.979" height="134.53" filterUnits="userSpaceOnUse" color-interpolation-filters="sRGB">
<feFlood flood-opacity="0" result="BackgroundImageFix"/>
<feColorMatrix in="SourceAlpha" type="matrix" values="0 0 0 0 0 0 0 0 0 0 0 0 0 0 0 0 0 0 127 0"/>
<feOffset dy="4"/>
<feColorMatrix type="matrix" values="0 0 0 0 0 0 0 0 0 0 0 0 0 0 0 0 0 0 0.25 0"/>
<feBlend mode="normal" in2="BackgroundImageFix" result="effect1_dropShadow"/>
<feBlend mode="normal" in="SourceGraphic" in2="effect1_dropShadow" result="shape"/>
</filter>
</defs>
</svg>
