
<svg width="1175" height="1184" fill="none" xmlns="http://www.w3.org/2000/svg"><path d="M835.263 943.251V240.49c0-49.259 0-121.506-52.195-174.049C740.66 22.108 670.524.763 569.397.763c-99.496 0-169.632 21.345-213.672 65.678-52.194 52.543-50.563 124.79-50.563 174.049v702.761c0 47.617-1.631 121.509 50.563 174.049 44.04 42.69 114.176 64.04 213.672 64.04 101.127 0 171.263-21.35 213.671-64.04 52.195-52.54 52.195-126.432 52.195-174.049zM588.97 990.868c0 9.852-8.156 19.702-19.573 19.702-11.418 0-19.573-9.85-19.573-19.702V192.873c0-11.494 8.155-19.704 19.573-19.704 11.417 0 19.573 8.21 19.573 19.704v797.995zM1174 1181.34V22.108H839.634v180.616h89.709v978.616H1174z" fill="#BAF2C3"/><path d="M237 1L2 1181" stroke="#BAF2C3" stroke-width="4"/></svg>