<svg width="225" height="76" viewBox="0 0 225 76" fill="none" xmlns="http://www.w3.org/2000/svg">
<path d="M0.15625 75V1.5H10.9563C15.0563 1.5 18.4729 2.4 21.2063 4.2C23.9729 6 26.0396 8.55 27.4062 11.85C28.7729 15.15 29.4563 19.0333 29.4563 23.5C29.4563 27.9667 28.7396 31.8167 27.3063 35.05C25.8729 38.2833 23.7729 40.8167 21.0063 42.65C18.2729 44.45 14.9229 45.4333 10.9563 45.6V75H0.15625ZM10.9563 34.6C12.8563 34.6 14.3563 34.2333 15.4563 33.5C16.5563 32.7333 17.3396 31.5333 17.8063 29.9C18.3063 28.2667 18.5563 26.1667 18.5563 23.6C18.5563 21 18.3063 18.8833 17.8063 17.25C17.3396 15.6167 16.5396 14.4167 15.4063 13.65C14.3063 12.8833 12.8229 12.5 10.9563 12.5V34.6ZM35.3125 75V1.5H46.1125C52.5792 1.5 57.3458 3.3 60.4125 6.89999C63.4792 10.4667 65.0125 15.7333 65.0125 22.7C65.0125 26.8333 64.2792 30.4167 62.8125 33.45C61.3792 36.45 59.6292 38.65 57.5625 40.05L64.9125 75H54.1125L48.0125 44H46.1125V75H35.3125ZM46.1125 34C48.1125 34 49.6958 33.5667 50.8625 32.7C52.0292 31.8 52.8625 30.5333 53.3625 28.9C53.8625 27.2667 54.1125 25.3333 54.1125 23.1C54.1125 19.6 53.5292 16.9167 52.3625 15.05C51.2292 13.15 49.1458 12.2 46.1125 12.2V34ZM84.9547 75.8C81.9547 75.8 79.3714 75.1 77.2047 73.7C75.0714 72.3 73.4214 70.4 72.2547 68C71.1214 65.6 70.5547 62.9 70.5547 59.9V16.6C70.5547 13.5667 71.1214 10.8667 72.2547 8.5C73.4214 6.1 75.0714 4.2 77.2047 2.79999C79.3714 1.4 81.9547 0.699997 84.9547 0.699997C87.9547 0.699997 90.5214 1.4 92.6547 2.79999C94.8214 4.2 96.4714 6.1 97.6047 8.5C98.7714 10.9 99.3547 13.6 99.3547 16.6V59.9C99.3547 62.9 98.7714 65.6 97.6047 68C96.4714 70.4 94.8214 72.3 92.6547 73.7C90.5214 75.1 87.9547 75.8 84.9547 75.8ZM84.9547 65.3C86.288 65.3 87.2214 64.75 87.7547 63.65C88.288 62.5167 88.5547 61.2667 88.5547 59.9V16.6C88.5547 15.2333 88.2714 14 87.7047 12.9C87.138 11.7667 86.2214 11.2 84.9547 11.2C83.7214 11.2 82.8047 11.7667 82.2047 12.9C81.638 14 81.3547 15.2333 81.3547 16.6V59.9C81.3547 61.2667 81.638 62.5167 82.2047 63.65C82.7714 64.75 83.688 65.3 84.9547 65.3ZM103.495 75.7V65.1C103.961 65.1667 104.311 65.2 104.545 65.2C106.045 65.2 107.211 64.7333 108.045 63.8C108.878 62.8333 109.295 61.4667 109.295 59.7V1.5H120.095V61.4C120.095 64.5667 119.511 67.2167 118.345 69.35C117.211 71.4833 115.545 73.0833 113.345 74.15C111.145 75.2167 108.478 75.75 105.345 75.75C105.045 75.75 104.745 75.75 104.445 75.75C104.145 75.75 103.828 75.7333 103.495 75.7ZM128.086 75V1.5H152.786V12.6H138.886V32.4H148.886V43.2H138.886V63.9H152.786V75H128.086ZM174.701 75.8C171.634 75.8 169.017 75.1167 166.851 73.75C164.717 72.35 163.084 70.45 161.951 68.05C160.851 65.65 160.301 62.9333 160.301 59.9V16.6C160.301 13.6 160.867 10.9 162.001 8.5C163.167 6.1 164.834 4.2 167.001 2.79999C169.167 1.4 171.734 0.699997 174.701 0.699997C176.934 0.699997 178.934 1.11666 180.701 1.95C182.467 2.78333 183.967 3.93333 185.201 5.4C186.467 6.83333 187.434 8.51666 188.101 10.45C188.767 12.35 189.101 14.4 189.101 16.6V26.7H179.001V16.6C179.001 15.0667 178.684 13.7833 178.051 12.75C177.417 11.7167 176.367 11.2 174.901 11.2C173.567 11.2 172.601 11.7333 172.001 12.8C171.401 13.8667 171.101 15.1333 171.101 16.6V59.9C171.101 61.3667 171.417 62.6333 172.051 63.7C172.717 64.7667 173.667 65.3 174.901 65.3C176.401 65.3 177.451 64.7833 178.051 63.75C178.684 62.7167 179.001 61.4333 179.001 59.9V49.8H189.101V59.9C189.101 62.9 188.517 65.6 187.351 68C186.184 70.4 184.517 72.3 182.351 73.7C180.217 75.1 177.667 75.8 174.701 75.8ZM203.841 75V12.6H193.641V1.5H224.841V12.6H214.641V75H203.841Z" fill="black"/>
</svg>
